<svg width="24" height="24" viewBox="0 0 24 24" fill="none" xmlns="http://www.w3.org/2000/svg">
<rect x="1.25" y="1.25" width="21.5" height="21.5" rx="10.75" fill="white"/>
<rect x="1.25" y="1.25" width="21.5" height="21.5" rx="10.75" stroke="#1B6392" stroke-width="1.5"/>
<path d="M9.00488 16V15.22V14.818C9.00488 14.374 9.08688 13.992 9.25088 13.672C9.41488 13.348 9.63288 13.066 9.90488 12.826C10.1769 12.586 10.4749 12.374 10.7989 12.19C11.1269 12.002 11.4509 11.826 11.7709 11.662C12.0949 11.494 12.3929 11.322 12.6649 11.146C12.9369 10.966 13.1549 10.766 13.3189 10.546C13.4869 10.326 13.5709 10.064 13.5709 9.76C13.5709 9.372 13.4329 9.056 13.1569 8.812C12.8849 8.564 12.5149 8.44 12.0469 8.44C11.5509 8.44 11.1409 8.582 10.8169 8.866C10.4969 9.15 10.3069 9.55 10.2469 10.066H8.83088C8.83888 9.538 8.96488 9.058 9.20888 8.626C9.45288 8.194 9.81488 7.85 10.2949 7.594C10.7749 7.334 11.3729 7.204 12.0889 7.204C12.7089 7.204 13.2429 7.312 13.6909 7.528C14.1429 7.74 14.4909 8.038 14.7349 8.422C14.9829 8.802 15.1069 9.246 15.1069 9.754C15.1069 10.198 15.0249 10.578 14.8609 10.894C14.7009 11.21 14.4869 11.484 14.2189 11.716C13.9549 11.944 13.6629 12.146 13.3429 12.322C13.0269 12.498 12.7089 12.664 12.3889 12.82C12.0729 12.972 11.7809 13.132 11.5129 13.3C11.2489 13.464 11.0349 13.652 10.8709 13.864C10.7109 14.076 10.6309 14.33 10.6309 14.626V14.752H15.1249V16H9.00488Z" fill="#1B6392"/>
</svg>
